<svg width="22" height="22" viewBox="0 0 22 22" fill="none" xmlns="http://www.w3.org/2000/svg">
<path d="M1.83517 11.0018C1.83568 13.1847 2.61477 15.2958 4.03238 16.9557C5.45 18.6156 7.41319 19.7155 9.56908 20.0576V13.651H7.2435V11.0018H9.57183V8.98516C9.52042 8.51316 9.57357 8.03563 9.7275 7.58648C9.88143 7.13733 10.1324 6.72759 10.4625 6.38635C10.7926 6.04511 11.1938 5.78074 11.6377 5.61203C12.0815 5.44332 12.557 5.3744 13.0304 5.41016C13.7179 5.42116 14.4054 5.48258 15.0837 5.59349V7.84758H13.9251C13.7282 7.82178 13.528 7.84057 13.3393 7.90256C13.1506 7.96454 12.9782 8.06814 12.835 8.20569C12.6917 8.34324 12.5812 8.51122 12.5115 8.69723C12.4419 8.88324 12.415 9.08251 12.4327 9.28033V11.0018H14.9728L14.5667 13.6519H12.4327V20.0576C14.1631 19.7841 15.7788 19.0206 17.0886 17.8574C18.3985 16.6941 19.3476 15.18 19.8236 13.4941C20.2996 11.8082 20.2826 10.0212 19.7745 8.34472C19.2664 6.66822 18.2886 5.1724 16.9568 4.03437C15.625 2.89634 13.9951 2.16376 12.2598 1.92335C10.5246 1.68294 8.75684 1.94477 7.16581 2.67785C5.57479 3.41094 4.22713 4.58456 3.2824 6.05978C2.33768 7.535 1.83545 9.25003 1.83517 11.0018V11.0018Z" fill="#699BF7"/>
</svg>
